<?xml version="1.0" encoding="UTF-8" standalone="no"?><svg xmlns="http://www.w3.org/2000/svg" xmlns:xlink="http://www.w3.org/1999/xlink" contentScriptType="application/ecmascript" contentStyleType="text/css" height="716px" preserveAspectRatio="none" style="width:915px;height:716px;" version="1.1" viewBox="0 0 915 716" width="915px" zoomAndPan="magnify"><defs><filter height="300%" id="fw98svtdkt4g9" width="300%" x="-1" y="-1"><feGaussianBlur result="blurOut" stdDeviation="2.0"/><feColorMatrix in="blurOut" result="blurOut2" type="matrix" values="0 0 0 0 0 0 0 0 0 0 0 0 0 0 0 0 0 0 .4 0"/><feOffset dx="4.0" dy="4.0" in="blurOut2" result="blurOut3"/><feBlend in="SourceGraphic" in2="blurOut3" mode="normal"/></filter></defs><g><text fill="#000000" font-family="sans-serif" font-size="18" lengthAdjust="spacingAndGlyphs" textLength="356" x="284.5" y="18.6855">Scheduler-Bot backend Component Diagram</text><!--entity apstart--><rect fill="#FEFECE" filter="url(#fw98svtdkt4g9)" height="37.6094" style="stroke: #A80036; stroke-width: 1.5;" width="90" x="432" y="65.6406"/><rect fill="#FEFECE" height="5" style="stroke: #A80036; stroke-width: 1.5;" width="10" x="427" y="70.6406"/><rect fill="#FEFECE" height="5" style="stroke: #A80036; stroke-width: 1.5;" width="10" x="427" y="93.25"/><text fill="#000000" font-family="sans-serif" font-size="14" lengthAdjust="spacingAndGlyphs" textLength="70" x="442" y="90.1738">app-starter</text><polygon fill="#FBFB77" filter="url(#fw98svtdkt4g9)" points="557.5,30.6406,557.5,138.75,782.5,138.75,782.5,40.6406,772.5,30.6406,557.5,30.6406" style="stroke: #A80036; stroke-width: 1.0;"/><polygon fill="#FBFB77" points="557.5,30.6406,557.5,80.6406,522.234,84.6406,557.5,88.6406,557.5,138.75,782.5,138.75,782.5,40.6406,772.5,30.6406,557.5,30.6406" style="stroke: #A80036; stroke-width: 1.0;"/><line style="stroke: #A80036; stroke-width: 1.0;" x1="772.5" x2="772.5" y1="30.6406" y2="40.6406"/><line style="stroke: #A80036; stroke-width: 1.0;" x1="782.5" x2="772.5" y1="40.6406" y2="40.6406"/><text fill="#000000" font-family="sans-serif" font-size="13" lengthAdjust="spacingAndGlyphs" textLength="162" x="563.5" y="49.1357">The service that composese</text><text fill="#000000" font-family="sans-serif" font-size="13" lengthAdjust="spacingAndGlyphs" textLength="126" x="563.5" y="65.4873">the rest-controller and</text><text fill="#000000" font-family="sans-serif" font-size="13" lengthAdjust="spacingAndGlyphs" textLength="130" x="563.5" y="81.8389">the bot-handler service</text><text fill="#000000" font-family="sans-serif" font-size="13" lengthAdjust="spacingAndGlyphs" textLength="200" x="563.5" y="98.1904">to expose the admin (web userser)</text><text fill="#000000" font-family="sans-serif" font-size="13" lengthAdjust="spacingAndGlyphs" textLength="170" x="563.5" y="114.542">and the bot-handler (bot-user)</text><text fill="#000000" font-family="sans-serif" font-size="13" lengthAdjust="spacingAndGlyphs" textLength="80" x="563.5" y="130.8936">functionalites.</text><!--entity bothandler--><rect fill="#FEFECE" filter="url(#fw98svtdkt4g9)" height="37.6094" style="stroke: #A80036; stroke-width: 1.5;" width="93" x="622.5" y="217.1406"/><rect fill="#FEFECE" height="5" style="stroke: #A80036; stroke-width: 1.5;" width="10" x="617.5" y="222.1406"/><rect fill="#FEFECE" height="5" style="stroke: #A80036; stroke-width: 1.5;" width="10" x="617.5" y="244.75"/><text fill="#000000" font-family="sans-serif" font-size="14" lengthAdjust="spacingAndGlyphs" textLength="73" x="632.5" y="241.6738">bot-handler</text><polygon fill="#FBFB77" filter="url(#fw98svtdkt4g9)" points="374.5,198.6406,374.5,274.0469,587.5,274.0469,587.5,208.6406,577.5,198.6406,374.5,198.6406" style="stroke: #A80036; stroke-width: 1.0;"/><polygon fill="#FBFB77" points="374.5,198.6406,374.5,274.0469,587.5,274.0469,587.5,240.1406,622.403,236.1406,587.5,232.1406,587.5,208.6406,577.5,198.6406,374.5,198.6406" style="stroke: #A80036; stroke-width: 1.0;"/><line style="stroke: #A80036; stroke-width: 1.0;" x1="577.5" x2="577.5" y1="198.6406" y2="208.6406"/><line style="stroke: #A80036; stroke-width: 1.0;" x1="587.5" x2="577.5" y1="208.6406" y2="208.6406"/><text fill="#000000" font-family="sans-serif" font-size="13" lengthAdjust="spacingAndGlyphs" textLength="188" x="380.5" y="217.1357">Implements the connection layer</text><text fill="#000000" font-family="sans-serif" font-size="13" lengthAdjust="spacingAndGlyphs" textLength="168" x="380.5" y="233.4873">with the bot users. Intercepts</text><text fill="#000000" font-family="sans-serif" font-size="13" lengthAdjust="spacingAndGlyphs" textLength="154" x="380.5" y="249.8389">the calls from the user and</text><text fill="#000000" font-family="sans-serif" font-size="13" lengthAdjust="spacingAndGlyphs" textLength="172" x="380.5" y="266.1904">forwards it to the service layer</text><!--entity rest--><rect fill="#FEFECE" filter="url(#fw98svtdkt4g9)" height="37.6094" style="stroke: #A80036; stroke-width: 1.5;" width="108" x="231" y="217.1406"/><rect fill="#FEFECE" height="5" style="stroke: #A80036; stroke-width: 1.5;" width="10" x="226" y="222.1406"/><rect fill="#FEFECE" height="5" style="stroke: #A80036; stroke-width: 1.5;" width="10" x="226" y="244.75"/><text fill="#000000" font-family="sans-serif" font-size="14" lengthAdjust="spacingAndGlyphs" textLength="88" x="241" y="241.6738">rest-controller</text><polygon fill="#FBFB77" filter="url(#fw98svtdkt4g9)" points="6,198.6406,6,274.0469,196,274.0469,196,208.6406,186,198.6406,6,198.6406" style="stroke: #A80036; stroke-width: 1.0;"/><polygon fill="#FBFB77" points="6,198.6406,6,274.0469,196,274.0469,196,240.1406,230.908,236.1406,196,232.1406,196,208.6406,186,198.6406,6,198.6406" style="stroke: #A80036; stroke-width: 1.0;"/><line style="stroke: #A80036; stroke-width: 1.0;" x1="186" x2="186" y1="198.6406" y2="208.6406"/><line style="stroke: #A80036; stroke-width: 1.0;" x1="196" x2="186" y1="208.6406" y2="208.6406"/><text fill="#000000" font-family="sans-serif" font-size="13" lengthAdjust="spacingAndGlyphs" textLength="165" x="12" y="217.1357">Implements the RESTful API</text><text fill="#000000" font-family="sans-serif" font-size="13" lengthAdjust="spacingAndGlyphs" textLength="131" x="12" y="233.4873">for the web-dashboard.</text><text fill="#000000" font-family="sans-serif" font-size="13" lengthAdjust="spacingAndGlyphs" textLength="121" x="12" y="249.8389">Forwards the calls to</text><text fill="#000000" font-family="sans-serif" font-size="13" lengthAdjust="spacingAndGlyphs" textLength="98" x="12" y="266.1904">the service layer.</text><!--entity service--><rect fill="#FEFECE" filter="url(#fw98svtdkt4g9)" height="37.6094" style="stroke: #A80036; stroke-width: 1.5;" width="65" x="636.5" y="376.6406"/><rect fill="#FEFECE" height="5" style="stroke: #A80036; stroke-width: 1.5;" width="10" x="631.5" y="381.6406"/><rect fill="#FEFECE" height="5" style="stroke: #A80036; stroke-width: 1.5;" width="10" x="631.5" y="404.25"/><text fill="#000000" font-family="sans-serif" font-size="14" lengthAdjust="spacingAndGlyphs" textLength="45" x="646.5" y="401.1738">service</text><polygon fill="#FBFB77" filter="url(#fw98svtdkt4g9)" points="315,333.6406,315,458.1016,601,458.1016,601,343.6406,591,333.6406,315,333.6406" style="stroke: #A80036; stroke-width: 1.0;"/><polygon fill="#FBFB77" points="315,333.6406,315,458.1016,601,458.1016,601,399.6406,636.329,395.6406,601,391.6406,601,343.6406,591,333.6406,315,333.6406" style="stroke: #A80036; stroke-width: 1.0;"/><line style="stroke: #A80036; stroke-width: 1.0;" x1="591" x2="591" y1="333.6406" y2="343.6406"/><line style="stroke: #A80036; stroke-width: 1.0;" x1="601" x2="591" y1="343.6406" y2="343.6406"/><text fill="#000000" font-family="sans-serif" font-size="13" lengthAdjust="spacingAndGlyphs" textLength="171" x="321" y="352.1357">Implements all business logic</text><text fill="#000000" font-family="sans-serif" font-size="13" lengthAdjust="spacingAndGlyphs" textLength="198" x="321" y="368.4873">of the system.Processes the calls</text><text fill="#000000" font-family="sans-serif" font-size="13" lengthAdjust="spacingAndGlyphs" textLength="209" x="321" y="384.8389">for REST clients and the bot clients.</text><text fill="#000000" font-family="sans-serif" font-size="13" lengthAdjust="spacingAndGlyphs" textLength="185" x="321" y="401.1904">Persists the changes in the DB.</text><text fill="#000000" font-family="sans-serif" font-size="13" lengthAdjust="spacingAndGlyphs" textLength="265" x="321" y="417.542">Communicates with the messages-processor.</text><text fill="#000000" font-family="sans-serif" font-size="13" lengthAdjust="spacingAndGlyphs" textLength="182" x="321" y="433.8936">Connecs to the third-party apps</text><text fill="#000000" font-family="sans-serif" font-size="13" lengthAdjust="spacingAndGlyphs" textLength="264" x="321" y="450.2451">like Googel Calender and Facebok messager.</text><!--entity msproc--><rect fill="#FEFECE" filter="url(#fw98svtdkt4g9)" height="37.6094" style="stroke: #A80036; stroke-width: 1.5;" width="152" x="679" y="517.6406"/><rect fill="#FEFECE" height="5" style="stroke: #A80036; stroke-width: 1.5;" width="10" x="674" y="522.6406"/><rect fill="#FEFECE" height="5" style="stroke: #A80036; stroke-width: 1.5;" width="10" x="674" y="545.25"/><text fill="#000000" font-family="sans-serif" font-size="14" lengthAdjust="spacingAndGlyphs" textLength="132" x="689" y="542.1738">messages-processor</text><polygon fill="#FBFB77" filter="url(#fw98svtdkt4g9)" points="671.5,615.6406,671.5,707.3984,906.5,707.3984,906.5,625.6406,896.5,615.6406,671.5,615.6406" style="stroke: #A80036; stroke-width: 1.0;"/><polygon fill="#FBFB77" points="671.5,615.6406,671.5,707.3984,906.5,707.3984,906.5,625.6406,896.5,615.6406,780.541,615.6406,760.017,555.7896,772.541,615.6406,671.5,615.6406" style="stroke: #A80036; stroke-width: 1.0;"/><line style="stroke: #A80036; stroke-width: 1.0;" x1="896.5" x2="896.5" y1="615.6406" y2="625.6406"/><line style="stroke: #A80036; stroke-width: 1.0;" x1="906.5" x2="896.5" y1="625.6406" y2="625.6406"/><text fill="#000000" font-family="sans-serif" font-size="13" lengthAdjust="spacingAndGlyphs" textLength="167" x="677.5" y="634.1357">Implements the NLP logic for</text><text fill="#000000" font-family="sans-serif" font-size="13" lengthAdjust="spacingAndGlyphs" textLength="149" x="677.5" y="650.4873">processing the messages</text><text fill="#000000" font-family="sans-serif" font-size="13" lengthAdjust="spacingAndGlyphs" textLength="155" x="677.5" y="666.8389">for the bot and retuns back</text><text fill="#000000" font-family="sans-serif" font-size="13" lengthAdjust="spacingAndGlyphs" textLength="168" x="677.5" y="683.1904">stuctured data understudable</text><text fill="#000000" font-family="sans-serif" font-size="13" lengthAdjust="spacingAndGlyphs" textLength="214" x="677.5" y="699.542">from the business logic control flows.</text><!--entity security--><rect fill="#FEFECE" filter="url(#fw98svtdkt4g9)" height="37.6094" style="stroke: #A80036; stroke-width: 1.5;" width="69" x="210.5" y="376.6406"/><rect fill="#FEFECE" height="5" style="stroke: #A80036; stroke-width: 1.5;" width="10" x="205.5" y="381.6406"/><rect fill="#FEFECE" height="5" style="stroke: #A80036; stroke-width: 1.5;" width="10" x="205.5" y="404.25"/><text fill="#000000" font-family="sans-serif" font-size="14" lengthAdjust="spacingAndGlyphs" textLength="49" x="220.5" y="401.1738">security</text><polygon fill="#FBFB77" filter="url(#fw98svtdkt4g9)" points="92,523.6406,92,549.9922,398,549.9922,398,533.6406,388,523.6406,92,523.6406" style="stroke: #A80036; stroke-width: 1.0;"/><polygon fill="#FBFB77" points="92,523.6406,92,549.9922,398,549.9922,398,533.6406,388,523.6406,249,523.6406,245,414.8126,241,523.6406,92,523.6406" style="stroke: #A80036; stroke-width: 1.0;"/><line style="stroke: #A80036; stroke-width: 1.0;" x1="388" x2="388" y1="523.6406" y2="533.6406"/><line style="stroke: #A80036; stroke-width: 1.0;" x1="398" x2="388" y1="533.6406" y2="533.6406"/><text fill="#000000" font-family="sans-serif" font-size="13" lengthAdjust="spacingAndGlyphs" textLength="285" x="98" y="542.1357">Provides JWT security layer for all the REST API.</text><!--entity persist--><rect fill="#FEFECE" filter="url(#fw98svtdkt4g9)" height="37.6094" style="stroke: #A80036; stroke-width: 1.5;" width="93" x="535.5" y="517.6406"/><rect fill="#FEFECE" height="5" style="stroke: #A80036; stroke-width: 1.5;" width="10" x="530.5" y="522.6406"/><rect fill="#FEFECE" height="5" style="stroke: #A80036; stroke-width: 1.5;" width="10" x="530.5" y="545.25"/><text fill="#000000" font-family="sans-serif" font-size="14" lengthAdjust="spacingAndGlyphs" textLength="73" x="545.5" y="542.1738">persistance</text><polygon fill="#FBFB77" filter="url(#fw98svtdkt4g9)" points="460,624.1406,460,699.5469,636,699.5469,636,634.1406,626,624.1406,460,624.1406" style="stroke: #A80036; stroke-width: 1.0;"/><polygon fill="#FBFB77" points="460,624.1406,460,699.5469,636,699.5469,636,634.1406,626,624.1406,562.1,624.1406,576.983,555.7896,554.1,624.1406,460,624.1406" style="stroke: #A80036; stroke-width: 1.0;"/><line style="stroke: #A80036; stroke-width: 1.0;" x1="626" x2="626" y1="624.1406" y2="634.1406"/><line style="stroke: #A80036; stroke-width: 1.0;" x1="636" x2="626" y1="634.1406" y2="634.1406"/><text fill="#000000" font-family="sans-serif" font-size="13" lengthAdjust="spacingAndGlyphs" textLength="147" x="466" y="642.6357">The connection point with</text><text fill="#000000" font-family="sans-serif" font-size="13" lengthAdjust="spacingAndGlyphs" textLength="151" x="466" y="658.9873">the DB layer. Provides the</text><text fill="#000000" font-family="sans-serif" font-size="13" lengthAdjust="spacingAndGlyphs" textLength="138" x="466" y="675.3389">API for manipulating the</text><text fill="#000000" font-family="sans-serif" font-size="13" lengthAdjust="spacingAndGlyphs" textLength="116" x="466" y="691.6904">system stored data.</text><path d="M498.038,103.8556 C510.165,114.2246 525.781,127.3566 540,138.6406 C573.689,165.3766 613.45,194.8116 639.834,214.0566 " fill="none" style="stroke: #A80036; stroke-width: 1.0;"/><polygon fill="#A80036" points="643.95,217.0556,639.0311,208.5231,639.9087,214.1115,634.3204,214.9891,643.95,217.0556" style="stroke: #A80036; stroke-width: 1.0;"/><path d="M453.84,103.6736 C418.234,131.3986 350.198,184.3746 312.265,213.9106 " fill="none" style="stroke: #A80036; stroke-width: 1.0;"/><polygon fill="#A80036" points="308.242,217.0436,317.801,214.6717,312.1875,213.9723,312.8869,208.3589,308.242,217.0436" style="stroke: #A80036; stroke-width: 1.0;"/><path d="M316.513,255.2126 C328.844,261.7216 343.297,268.6756 357,273.6406 C468.908,314.1826 516.54,271.4066 618,333.6406 C633.435,343.1076 646.442,358.8886 655.457,372.0266 " fill="none" style="stroke: #A80036; stroke-width: 1.0;"/><polygon fill="#A80036" points="658.359,376.3686,656.6818,366.6636,655.5799,372.2121,650.0314,371.1102,658.359,376.3686" style="stroke: #A80036; stroke-width: 1.0;"/><path d="M280.411,255.2076 C273.126,283.8926 258.919,339.8336 250.892,371.4426 " fill="none" style="stroke: #A80036; stroke-width: 1.0;"/><polygon fill="#A80036" points="249.658,376.2986,255.7515,368.5611,250.8895,371.4527,247.9979,366.5907,249.658,376.2986" style="stroke: #A80036; stroke-width: 1.0;"/><path d="M669,255.2076 C669,283.7746 669,339.3736 669,371.0516 " fill="none" style="stroke: #A80036; stroke-width: 1.0;"/><polygon fill="#A80036" points="669,376.2986,673,367.2986,669,371.2986,665,367.2986,669,376.2986" style="stroke: #A80036; stroke-width: 1.0;"/><path d="M657.626,414.8126 C641.865,439.9946 613.389,485.4906 596.235,512.8966 " fill="none" style="stroke: #A80036; stroke-width: 1.0;"/><polygon fill="#A80036" points="593.377,517.4646,601.5425,511.9578,596.0297,513.2263,594.7612,507.7135,593.377,517.4646" style="stroke: #A80036; stroke-width: 1.0;"/><path d="M680.243,414.8126 C695.823,439.9946 723.972,485.4906 740.928,512.8966 " fill="none" style="stroke: #A80036; stroke-width: 1.0;"/><polygon fill="#A80036" points="743.754,517.4646,742.4224,507.7062,741.1242,513.2121,735.6183,511.9139,743.754,517.4646" style="stroke: #A80036; stroke-width: 1.0;"/><!--
@startuml

title Scheduler-Bot backend Component Diagram

component [app-starter] as apstart
note right of apstart
The service that composese
the rest-controller and 
the bot-handler service
to expose the admin (web userser) 
and the bot-handler (bot-user) 
functionalites.
end note

component [bot-handler] as bothandler
note left of bothandler
Implements the connection layer 
with the bot users. Intercepts 
the calls from the user and 
forwards it to the service layer
end note

component [rest-controller] as rest
note left of rest
Implements the RESTful API 
for the web-dashboard.
Forwards the calls to 
the service layer.
end note

component [service] as service
note left of service
Implements all business logic
of the system.Processes the calls
for REST clients and the bot clients.
Persists the changes in the DB.
Communicates with the messages-processor.
Connecs to the third-party apps 
like Googel Calender and Facebok messager.
end note

component [messages-processor] as msproc
note bottom of msproc
Implements the NLP logic for
processing the messages 
for the bot and retuns back 
stuctured data understudable 
from the business logic control flows.
end note

component [security] as security
note bottom of security
Provides JWT security layer for all the REST API.
end note

component [persistance] as persist
note bottom of persist
The connection point with
the DB layer. Provides the 
API for manipulating the
system stored data.
end note

apstart - -> bothandler
apstart - -> rest

rest - -> service
rest - -> security

bothandler - -> service
service - -> persist
service - -> msproc
@enduml

PlantUML version 2017.11(Wed Apr 19 19:18:59 EEST 2017)
(GPL source distribution)
Java Runtime: Java(TM) SE Runtime Environment
JVM: Java HotSpot(TM) 64-Bit Server VM
Java Version: 1.8.0_60-b27
Operating System: Windows 10
OS Version: 10.0
Default Encoding: Cp1252
Language: en
Country: US
--></g></svg>